<?xml version="1.0" encoding="iso-8859-1"?>
<!-- Generator: Adobe Illustrator 19.0.0, SVG Export Plug-In . SVG Version: 6.00 Build 0)  -->
<svg version="1.1" id="Capa_1" xmlns="http://www.w3.org/2000/svg" xmlns:xlink="http://www.w3.org/1999/xlink" x="0px" y="0px"
	 viewBox="0 0 57.99 57.99" style="enable-background:new 0 0 57.99 57.99;" xml:space="preserve">
<path style="fill:#7F5B53;" d="M28.953,40.99c-6.617,0-12-5.383-12-12s5.383-12,12-12s12,5.383,12,12S35.57,40.99,28.953,40.99z"/>
<circle style="fill:#D9B24C;" cx="28.953" cy="28.99" r="6"/>
<path style="fill:#AF8066;" d="M28.835,12.991c0.06,0.077,0.177,0.076,0.237,0c1.858-2.377,3.245-5.45,3.728-7.605
	c0.179-0.798,0.22-1.63,0.024-2.424c-0.01-0.039-0.02-0.078-0.03-0.116c-1.027-3.799-6.578-3.792-7.599,0.008
	c-0.01,0.036-0.019,0.071-0.028,0.108c-0.195,0.793-0.155,1.623,0.023,2.42C25.673,7.535,26.979,10.613,28.835,12.991z"/>
<path style="fill:#AF8066;" d="M29.156,44.99c-0.06-0.077-0.177-0.076-0.237,0c-1.858,2.377-3.245,5.459-3.728,7.614
	c-0.179,0.798-0.22,1.63-0.024,2.424c0.01,0.039,0.02,0.078,0.03,0.116c1.027,3.799,6.578,3.792,7.599-0.008
	c0.01-0.036,0.019-0.071,0.028-0.108c0.195-0.793,0.155-1.623-0.023-2.42C32.317,50.455,31.012,47.368,29.156,44.99z"/>
<path style="fill:#AF8066;" d="M44.953,28.835c-0.077,0.06-0.076,0.177,0,0.237c2.377,1.858,5.497,3.245,7.652,3.728
	c0.798,0.179,1.63,0.22,2.424,0.024c0.039-0.01,0.078-0.02,0.116-0.03c3.799-1.027,3.792-6.578-0.008-7.599
	c-0.036-0.01-0.071-0.019-0.108-0.028c-0.793-0.195-1.623-0.155-2.42,0.023C50.455,25.673,47.331,26.979,44.953,28.835z"/>
<path style="fill:#AF8066;" d="M12.953,29.156c0.077-0.06,0.076-0.177,0-0.237c-2.377-1.858-5.412-3.245-7.567-3.728
	c-0.798-0.179-1.63-0.22-2.424-0.024c-0.039,0.01-0.078,0.02-0.116,0.03c-3.799,1.027-3.792,6.578,0.008,7.599
	c0.036,0.01,0.071,0.019,0.108,0.028c0.793,0.195,1.623,0.155,2.42-0.023C7.535,32.317,10.575,31.012,12.953,29.156z"/>
<path style="fill:#AF8066;" d="M17.784,17.989c0.097,0.012,0.179-0.071,0.167-0.168c-0.367-2.994-1.779-6.345-2.961-8.211
	c-0.438-0.691-0.997-1.308-1.697-1.731c-0.034-0.021-0.069-0.041-0.103-0.061c-3.412-1.96-7.333,1.97-5.367,5.379
	c0.018,0.032,0.037,0.064,0.057,0.096c0.423,0.699,1.038,1.258,1.728,1.695C11.472,16.17,14.791,17.62,17.784,17.989z"/>
<path style="fill:#AF8066;" d="M40.121,39.992c-0.097-0.012-0.179,0.071-0.167,0.168c0.367,2.994,1.864,6.355,3.046,8.22
	c0.438,0.691,0.997,1.308,1.697,1.731c0.034,0.021,0.069,0.041,0.103,0.061c3.412,1.96,7.333-1.97,5.367-5.379
	c-0.018-0.032-0.037-0.064-0.057-0.096c-0.423-0.699-1.038-1.258-1.728-1.695C46.519,41.821,43.115,40.361,40.121,39.992z"/>
<path style="fill:#AF8066;" d="M39.954,17.822c-0.012,0.097,0.071,0.179,0.168,0.167c2.994-0.367,6.392-1.817,8.258-2.999
	c0.691-0.438,1.308-0.997,1.731-1.697c0.021-0.034,0.041-0.069,0.061-0.103c1.96-3.412-1.97-7.333-5.379-5.367
	c-0.032,0.018-0.064,0.037-0.096,0.057c-0.699,0.423-1.258,1.038-1.695,1.728C41.821,11.472,40.323,14.828,39.954,17.822z"/>
<path style="fill:#AF8066;" d="M17.952,40.159c0.012-0.097-0.071-0.179-0.168-0.167C14.79,40.358,11.476,41.818,9.611,43
	c-0.691,0.438-1.308,0.997-1.731,1.697c-0.021,0.034-0.041,0.069-0.061,0.103c-1.96,3.412,1.97,7.333,5.379,5.367
	c0.032-0.018,0.064-0.037,0.096-0.057c0.699-0.423,1.258-1.038,1.695-1.728C16.17,46.519,17.583,43.153,17.952,40.159z"/>
<g>
</g>
<g>
</g>
<g>
</g>
<g>
</g>
<g>
</g>
<g>
</g>
<g>
</g>
<g>
</g>
<g>
</g>
<g>
</g>
<g>
</g>
<g>
</g>
<g>
</g>
<g>
</g>
<g>
</g>
</svg>
